# xmcd CD database file
#
# Track frame offsets:
#	150
#	21895
#	39631
#	64774
#	83049
#	113534
#
# Disc length: 1988 seconds
#
# Revision: 0
# Processed by: cddbd v1.5.2PL0 Copyright (c) Steve Scherf et al.
# Submitted via: CDex 1.50
#
DISCID=4107c206
DTITLE=Alex Toth and the Lazybirds - Vermont Sky Session
DYEAR=2006
DGENRE=Jazz
TTITLE0=The Big Push
TTITLE1=Goodbye Porkpie Hat
TTITLE2=Triste
TTITLE3=Have You Met Miss Jones
TTITLE4=Sonnymoon for Two
TTITLE5=I Hear a Rhapsody
EXTD=YEAR: 2006
EXTT0=
EXTT1=
EXTT2=
EXTT3=
EXTT4=
EXTT5=
PLAYORDER=
